<?xml version="1.0" encoding="iso-8859-1"?>
<!-- Generator: Adobe Illustrator 19.0.0, SVG Export Plug-In . SVG Version: 6.00 Build 0)  -->
<svg version="1.1" id="Layer_1" xmlns="http://www.w3.org/2000/svg" xmlns:xlink="http://www.w3.org/1999/xlink" x="0px" y="0px"
	 viewBox="0 0 488.911 488.911" style="enable-background:new 0 0 488.911 488.911;" xml:space="preserve">
<g id="XMLID_446_">
	<g id="XMLID_6_">
		<polygon style="fill:#D60B52;" points="481.41,213.598 91.581,213.598 68.65,244.173 45.719,213.598 7.5,213.598 7.5,22.505 
			481.41,22.725 		"/>
	</g>
	<g id="XMLID_190_">
		<polygon style="fill:#A1083E;" points="481.41,213.598 213.88,213.598 320.892,22.505 481.41,22.505 		"/>
	</g>
	<g id="XMLID_306_">
		<polygon style="fill:#CBBBA0;" points="7.5,274.747 397.329,274.747 420.26,244.173 443.191,274.747 481.41,274.747 
			481.41,465.84 7.5,465.62 		"/>
	</g>
	<g id="XMLID_303_">
		<polygon style="fill:#E0D6C6;" points="7.5,274.747 275.03,274.747 168.018,465.84 7.5,465.84 		"/>
	</g>
	<g id="XMLID_745_">
		<path style="fill:#1D1D1B;" d="M488.91,473.34H0V267.247h393.579l26.681-35.575l26.682,35.575h41.969V473.34H488.91z M15,458.34
			h458.91V282.247h-34.469l-19.182-25.575l-19.181,25.575H15V458.34z"/>
	</g>
	<g id="XMLID_7_">
		<path style="fill:#1D1D1B;" d="M68.65,257.239l-26.682-35.575H0V15.572h488.91v206.092H95.331L68.65,257.239z M15,206.663h34.469
			l19.182,25.575l19.181-25.575H473.91V30.572H15V206.663z"/>
	</g>
	<g id="XMLID_36_">
		<rect x="53.362" y="53.224" style="fill:#FFFFFF;" width="175.806" height="15"/>
	</g>
	<g id="XMLID_37_">
		<rect x="53.362" y="91.442" style="fill:#FFFFFF;" width="267.529" height="15"/>
	</g>
	<g id="XMLID_39_">
		<rect x="53.362" y="129.661" style="fill:#FFFFFF;" width="84.081" height="15"/>
	</g>
	<g id="XMLID_40_">
		<rect x="152.73" y="129.661" style="fill:#FFFFFF;" width="114.655" height="15"/>
	</g>
	<g id="XMLID_41_">
		<rect x="53.362" y="167.879" style="fill:#FFFFFF;" width="129.943" height="15"/>
	</g>
	<g id="XMLID_93_">
		<rect x="252.099" y="305.466" style="fill:#1D1D1B;" width="183.449" height="15"/>
	</g>
	<g id="XMLID_45_">
		<rect x="366.754" y="343.684" style="fill:#1D1D1B;" width="68.794" height="15"/>
	</g>
	<g id="XMLID_44_">
		<rect x="61.006" y="381.903" style="fill:#1D1D1B;" width="214.024" height="15"/>
	</g>
	<g id="XMLID_43_">
		<rect x="290.317" y="381.903" style="fill:#1D1D1B;" width="145.23" height="15"/>
	</g>
	<g id="XMLID_42_">
		<rect x="267.386" y="420.121" style="fill:#1D1D1B;" width="168.162" height="15"/>
	</g>
	<g id="XMLID_94_">
		<rect x="145.087" y="343.684" style="fill:#1D1D1B;" width="206.38" height="15"/>
	</g>
	<g id="XMLID_107_">
		<rect x="336.18" y="91.442" style="fill:#FFFFFF;" width="45.862" height="15"/>
	</g>
	<g id="XMLID_113_">
		<rect x="244.455" y="53.224" style="fill:#FFFFFF;" width="30.575" height="15"/>
	</g>
</g>
<g>
</g>
<g>
</g>
<g>
</g>
<g>
</g>
<g>
</g>
<g>
</g>
<g>
</g>
<g>
</g>
<g>
</g>
<g>
</g>
<g>
</g>
<g>
</g>
<g>
</g>
<g>
</g>
<g>
</g>
</svg>
