<?xml version="1.0" encoding="iso-8859-1"?>
<!-- Generator: Adobe Illustrator 19.0.0, SVG Export Plug-In . SVG Version: 6.00 Build 0)  -->
<svg version="1.1" id="Layer_1" xmlns="http://www.w3.org/2000/svg" xmlns:xlink="http://www.w3.org/1999/xlink" x="0px" y="0px"
	 viewBox="0 0 512 512" style="enable-background:new 0 0 512 512;" xml:space="preserve">
<rect x="368.612" y="7.752" style="fill:#5EBAE7;" width="48.049" height="496.492"/>
<rect x="448.846" y="7.752" style="fill:#36A9E1;" width="48.049" height="496.492"/>
<rect x="409.541" y="7.752" style="fill:#CBBBA0;" width="48.049" height="496.492"/>
<rect x="192.435" y="7.752" style="fill:#D5C9B3;" width="184.187" height="496.492"/>
<polygon style="fill:#5EBAE7;" points="240.488,504.248 16.262,504.248 16.262,7.752 336.584,7.752 336.584,400.144 "/>
<polygon style="fill:#36A9E1;" points="240.488,504.248 208.455,504.248 204.811,7.752 332.939,7.752 332.939,406.577 "/>
<polygon style="fill:#CBBBA0;" points="240.488,400.144 240.488,504.248 336.584,400.144 "/>
<polygon style="fill:#D5C9B3;" points="272.519,470.408 240.488,504.248 240.488,400.144 272.519,400.144 "/>
<g>
	<path style="fill:#1D1D1B;" d="M8.511,0v512h235.37l100.454-108.824V0H8.511z M24.014,15.503h304.818v376.889h-96.096v104.104
		H24.014V15.503z M318.878,407.896l-70.64,76.526v-76.526H318.878z"/>
	<polygon style="fill:#1D1D1B;" points="384.375,512 272.174,512 272.174,496.497 368.872,496.497 368.872,15.503 352.6,15.503 
		352.6,0 384.375,0 	"/>
	<polygon style="fill:#1D1D1B;" points="424.964,512 392.041,512 392.041,496.497 409.461,496.497 409.461,15.503 393.188,15.503 
		393.188,0 424.964,0 	"/>
	<polygon style="fill:#1D1D1B;" points="463.87,512 430.946,512 430.946,496.497 448.367,496.497 448.367,15.503 432.093,15.503 
		432.093,0 463.87,0 	"/>
	<polygon style="fill:#1D1D1B;" points="503.489,512 470.566,512 470.566,496.497 487.986,496.497 487.986,15.503 471.714,15.503 
		471.714,0 503.489,0 	"/>
	<rect x="56.308" y="48.049" style="fill:#1D1D1B;" width="48.049" height="15.503"/>
</g>
<rect x="56.308" y="112.108" style="fill:#FFFFFF;" width="88.089" height="15.503"/>
<g>
	<rect x="56.308" y="176.177" style="fill:#1D1D1B;" width="88.089" height="15.503"/>
	<rect x="56.308" y="144.148" style="fill:#1D1D1B;" width="184.187" height="15.503"/>
</g>
<g>
	<rect x="56.308" y="448.453" style="fill:#FFFFFF;" width="16.017" height="15.503"/>
	<rect x="88.337" y="448.453" style="fill:#FFFFFF;" width="16.017" height="15.503"/>
	<rect x="120.367" y="448.453" style="fill:#FFFFFF;" width="16.017" height="15.503"/>
</g>
<g>
</g>
<g>
</g>
<g>
</g>
<g>
</g>
<g>
</g>
<g>
</g>
<g>
</g>
<g>
</g>
<g>
</g>
<g>
</g>
<g>
</g>
<g>
</g>
<g>
</g>
<g>
</g>
<g>
</g>
</svg>
